<svg width="1735" height="204" viewBox="0 0 1735 204" fill="none" xmlns="http://www.w3.org/2000/svg">
<g clip-path="url(#clip0_3005_1241)">
<rect width="1735" height="204" rx="10" fill="url(#paint0_linear_3005_1241)"/>
<path d="M1618 45C1618 45 1620.21 71.5222 1628.8 82.5903C1637.4 93.6585 1658 96.5 1658 96.5C1658 96.5 1637.4 99.3415 1628.8 110.41C1620.21 121.478 1618 148 1618 148C1618 148 1615.79 121.478 1607.2 110.41C1598.6 99.3415 1578 96.5 1578 96.5C1578 96.5 1598.6 93.6585 1607.2 82.5903C1615.79 71.5222 1618 45 1618 45Z" fill="white" fill-opacity="0.25"/>
<path d="M1688 93C1688 93 1690.21 119.522 1698.8 130.59C1707.4 141.658 1728 144.5 1728 144.5C1728 144.5 1707.4 147.342 1698.8 158.41C1690.21 169.478 1688 196 1688 196C1688 196 1685.79 169.478 1677.2 158.41C1668.6 147.342 1648 144.5 1648 144.5C1648 144.5 1668.6 141.658 1677.2 130.59C1685.79 119.522 1688 93 1688 93Z" fill="white" fill-opacity="0.1"/>
<path d="M1547 122C1547 122 1549.21 158.307 1557.8 173.459C1566.4 188.61 1587 192.5 1587 192.5C1587 192.5 1566.4 196.39 1557.8 211.541C1549.21 226.693 1547 263 1547 263C1547 263 1544.79 226.693 1536.2 211.541C1527.6 196.39 1507 192.5 1507 192.5C1507 192.5 1527.6 188.61 1536.2 173.459C1544.79 158.307 1547 122 1547 122Z" fill="white" fill-opacity="0.1"/>
<path d="M1678.5 -59C1678.5 -59 1680.18 -22.6929 1686.74 -7.5414C1693.29 7.61014 1709 11.5 1709 11.5C1709 11.5 1693.29 15.3899 1686.74 30.5414C1680.18 45.6929 1678.5 82 1678.5 82C1678.5 82 1676.82 45.6929 1670.26 30.5414C1663.71 15.3899 1648 11.5 1648 11.5C1648 11.5 1663.71 7.61014 1670.26 -7.5414C1676.82 -22.6929 1678.5 -59 1678.5 -59Z" fill="white" fill-opacity="0.1"/>
<path d="M1547.5 20C1547.5 20 1549.18 41.3722 1555.74 50.2912C1562.29 59.2102 1578 61.5 1578 61.5C1578 61.5 1562.29 63.7898 1555.74 72.7088C1549.18 81.6278 1547.5 103 1547.5 103C1547.5 103 1545.82 81.6278 1539.26 72.7088C1532.71 63.7898 1517 61.5 1517 61.5C1517 61.5 1532.71 59.2102 1539.26 50.2912C1545.82 41.3722 1547.5 20 1547.5 20Z" fill="white" fill-opacity="0.1"/>
</g>
<defs>
<linearGradient id="paint0_linear_3005_1241" x1="0" y1="0" x2="1735" y2="-1.53818e-06" gradientUnits="userSpaceOnUse">
<stop stop-color="#475467"/>
<stop offset="1" stop-color="#667085"/>
</linearGradient>
<clipPath id="clip0_3005_1241">
<rect width="1735" height="204" rx="10" fill="white"/>
</clipPath>
</defs>
</svg>
