<svg width="48" height="48" viewBox="0 0 48 48" fill="none" xmlns="http://www.w3.org/2000/svg">
<g clip-path="url(#clip0_3002_3005)">
<path d="M24.0013 47.4481C36.9506 47.4481 47.4481 36.9506 47.4481 24.0013C47.4481 11.052 36.9506 0.554565 24.0013 0.554565C11.052 0.554565 0.554565 11.052 0.554565 24.0013C0.554565 36.9506 11.052 47.4481 24.0013 47.4481Z" fill="#662D91"/>
<path d="M23.9683 48C21.7719 48 19.592 47.6979 17.4642 47.0967C14.3727 46.2236 11.5229 44.7547 8.99423 42.7286C6.4656 40.7024 4.4092 38.2424 2.88269 35.4172C1.40835 32.6882 0.485851 29.7312 0.145406 26.6343C-0.197784 23.5373 0.0575493 20.4514 0.900425 17.467C1.7735 14.3755 3.24236 11.5257 5.26855 8.99704C7.29475 6.46841 9.75474 4.41201 12.5799 2.8855C15.3144 1.41115 18.2686 0.488659 21.3656 0.148214C24.4625 -0.194977 27.5485 0.0603569 30.5329 0.903233C33.6243 1.77631 36.4742 3.24517 39.0028 5.27136C41.5314 7.29756 43.5878 9.75755 45.1143 12.5827C46.5887 15.3117 47.5112 18.2687 47.8516 21.3656C48.1948 24.4626 47.9395 27.5485 47.0966 30.5329C46.2235 33.6244 44.7547 36.4742 42.7285 39.0029C40.7023 41.5315 38.2423 43.5879 35.4172 45.1144C32.6881 46.5888 29.7312 47.5113 26.6342 47.8517C25.7447 47.9505 24.8551 48 23.9711 48H23.9683ZM24.0452 1.10091C23.1968 1.10091 22.343 1.14758 21.4891 1.24093C15.4105 1.91084 9.95516 4.9117 6.13065 9.68342C2.30613 14.4579 0.570962 20.4321 1.24087 26.5135C1.91078 32.5921 4.91164 38.0474 9.68336 41.8719C14.4578 45.6965 20.4348 47.4316 26.5134 46.7617C32.592 46.0918 38.0474 43.091 41.8719 38.3192C45.6964 33.5448 47.4316 27.5705 46.7617 21.4892C46.0918 15.4106 43.0909 9.95523 38.3192 6.13071C34.2174 2.84432 29.226 1.10091 24.0479 1.10091H24.0452Z" fill="#FFE512"/>
<path d="M24.0014 41.0511C33.4177 41.0511 41.0511 33.4177 41.0511 24.0014C41.0511 14.5851 33.4177 6.95166 24.0014 6.95166C14.5851 6.95166 6.95166 14.5851 6.95166 24.0014C6.95166 33.4177 14.5851 41.0511 24.0014 41.0511Z" fill="#FFE512"/>
<path d="M23.9657 41.6358C19.9765 41.6358 16.1327 40.2933 12.9754 37.7619C9.29912 34.816 6.99013 30.6181 6.47398 25.9369C5.95782 21.2558 7.29489 16.6543 10.2381 12.9781C13.184 9.3018 17.3819 6.99282 22.0631 6.47666C26.7442 5.9605 31.3457 7.29757 35.0219 10.2408C38.6982 13.1867 41.0072 17.3846 41.5233 22.0657C42.0395 26.7469 40.7024 31.3484 37.7592 35.0246C34.8133 38.7009 30.6154 41.0099 25.9343 41.526C25.2753 41.5974 24.6191 41.6358 23.9657 41.6358ZM24.0151 7.54192C19.1858 7.54192 14.3976 9.65049 11.1496 13.7056C5.47186 20.7918 6.61949 31.1726 13.7057 36.8504C20.7919 42.5281 31.1727 41.3805 36.8505 34.2943C42.5255 27.2081 41.3806 16.8273 34.2944 11.1495C31.2633 8.71975 27.6282 7.54192 24.0151 7.54192Z" fill="#662D91"/>
<path d="M30.6949 15.644C28.4628 13.8566 25.6679 13.044 22.8235 13.3569C19.9791 13.6699 17.4285 15.0729 15.6412 17.305C11.9485 21.912 12.6953 28.666 17.3023 32.3587C19.2735 33.9374 21.6374 34.7061 23.9876 34.7061C27.1285 34.7061 30.2419 33.3334 32.356 30.6977C36.0487 26.0907 35.3019 19.3367 30.6949 15.644Z" fill="#662D91"/>
<path d="M36.9658 22.9938L34.8765 14.2658C34.8188 14.0214 34.6321 13.8292 34.3905 13.7633L25.1436 11.1963C25.1079 11.1853 25.0694 11.1798 25.031 11.1798C24.8663 11.1798 24.7208 11.2786 24.6549 11.4297C24.589 11.5834 24.6192 11.7536 24.7345 11.8744C25.2589 12.4263 26.3241 13.5465 26.8348 14.0846C24.8333 14.8066 22.7742 15.6056 21.0939 16.6324C19.1556 17.8157 17.3298 19.2324 15.6605 20.8441C14.922 20.1522 12.3247 17.7279 11.1414 16.6214C11.0618 16.5473 10.9629 16.5089 10.8559 16.5089C10.7213 16.5089 10.595 16.572 10.5154 16.6818C10.4358 16.7889 10.4138 16.9234 10.4523 17.0525L15.386 33.1083C15.4656 33.3691 15.6743 33.5668 15.9378 33.6382L30.9504 37.5368C30.9861 37.5451 31.0217 37.5506 31.0574 37.5506C31.2277 37.5506 31.3787 37.4462 31.4446 37.287C31.5077 37.1278 31.4693 36.9493 31.3457 36.8285C30.0636 35.593 27.038 32.6828 25.8904 31.5928C26.0386 31.1343 26.2033 30.6785 26.3873 30.2035C27.0737 28.4409 28.2927 26.0084 29.649 24.4736C30.7088 23.2766 32.0129 22.1427 33.748 20.9154L36.2767 23.3837C36.3536 23.4605 36.4551 23.5017 36.5622 23.5017C36.6885 23.5017 36.8093 23.4413 36.8889 23.3425C36.9658 23.2436 36.9933 23.1173 36.9658 22.9938Z" fill="#662D91"/>
<path d="M33.9401 14.6721C31.6504 14.0571 29.3688 13.4201 27.112 12.7859C27.3728 13.0604 27.6364 13.346 27.9109 13.6233C28.1882 13.9061 28.471 14.1779 28.7593 14.4634C24.1413 15.8966 19.8803 18.3648 16.4099 21.7418C16.3248 21.8269 15.6851 22.4666 15.6879 22.4666C14.6418 21.5029 13.615 20.4679 12.536 19.4767C13.9609 23.6527 15.3886 27.8259 16.8108 31.9936C20.6435 33.1577 28.2596 35.4749 28.2596 35.4749C28.2596 35.4749 25.7996 33.1055 24.5642 31.9442C25.8298 27.6282 28.3228 23.7982 31.9331 21.0774C32.603 20.5722 33.3032 20.0753 34.017 19.6415L35.4721 21.0609C35.4721 21.0609 34.0719 15.4326 33.9374 14.6748L33.9401 14.6721Z" fill="#FFE512"/>
<path d="M26.8348 20.6546C26.5025 20.3334 26.1539 20.0259 25.8217 19.6717C27.3097 18.417 28.8884 17.3133 30.5906 16.3716C30.9475 16.6928 31.277 16.9921 31.6229 17.3051C29.8878 18.2413 28.2981 19.3532 26.8348 20.6519V20.6546Z" fill="#662D91"/>
<path d="M5.6667 12.882L6.73471 13.5683L7.31402 12.6678L6.24601 11.9814L6.68255 11.3005L9.5022 13.1098L9.06566 13.7907L7.94274 13.0687L7.36344 13.9692L8.48636 14.6913L8.05256 15.3667L5.23291 13.5574L5.6667 12.882Z" fill="white"/>
<path d="M8.73348 8.95319L12.0034 10.3726L11.4186 10.9904L10.853 10.7268L10.0349 11.5916L10.3314 12.138L9.74658 12.7557L8.14868 9.57367L8.73897 8.95044L8.73348 8.95319ZM9.68343 10.9327L10.1721 10.4165L9.15629 9.94706L9.68343 10.9327Z" fill="white"/>
<path d="M11.5285 6.56735C12.127 6.13081 12.742 6.12806 13.1593 6.70462C13.4476 7.09998 13.4476 7.49534 13.2225 7.84402L14.6392 8.44803L13.9034 8.98341L12.6322 8.4041L12.289 8.65395L13.0028 9.63684L12.3521 10.1091L10.3809 7.39924L11.5285 6.5646V6.56735ZM11.8827 8.10759L12.3961 7.7342C12.6157 7.57496 12.7036 7.37453 12.5526 7.16587C12.4043 6.9627 12.1902 6.98741 11.9705 7.14665L11.4571 7.52005L11.8854 8.10759H11.8827Z" fill="white"/>
<path d="M14.8945 4.59331C15.5616 4.27483 16.1684 4.3819 16.4731 5.02436C16.6845 5.46639 16.6132 5.8535 16.3276 6.15551L17.6098 7.00662L16.7889 7.39923L15.644 6.60029L15.2596 6.78424L15.784 7.8797L15.0592 8.22564L13.6123 5.20282L14.8917 4.59056L14.8945 4.59331ZM14.9631 6.16924L15.5342 5.89469C15.7785 5.77663 15.9021 5.59543 15.7895 5.3648C15.6797 5.13692 15.4655 5.12319 15.2212 5.24125L14.6501 5.5158L14.9631 6.17198V6.16924Z" fill="white"/>
<path d="M17.8679 3.45386L18.8865 6.6469L18.115 6.89125L17.0964 3.69821L17.8679 3.45386Z" fill="white"/>
<path d="M19.8117 5.30156C20.0917 5.49375 20.4047 5.59534 20.8193 5.52395C21.2201 5.45257 21.3766 5.28235 21.3382 5.0682C21.3052 4.87875 21.157 4.84581 20.9895 4.82384C20.7644 4.79913 20.358 4.78815 20.0066 4.71677C19.5948 4.63166 19.2983 4.46143 19.2241 4.03313C19.1253 3.46481 19.5042 2.99258 20.3196 2.84707C20.9922 2.72901 21.4507 2.92943 21.7033 3.14633L21.2311 3.72563C20.9977 3.56914 20.7342 3.50325 20.391 3.56365C20.1247 3.61032 19.9544 3.70916 19.9819 3.86566C20.0066 4.00019 20.1384 4.03588 20.2702 4.0551C20.553 4.09903 20.9538 4.08804 21.275 4.14844C21.6621 4.22257 22.0163 4.41751 22.1042 4.92817C22.225 5.62005 21.7198 6.0758 20.8852 6.22406C20.1741 6.34761 19.6387 6.1719 19.301 5.88636L19.8089 5.30156H19.8117Z" fill="white"/>
<path d="M26.6618 3.83544C26.5108 3.5554 26.3323 3.37419 25.9809 3.34399C25.484 3.30006 25.171 3.60482 25.1133 4.26923C25.0557 4.93365 25.3137 5.28233 25.8107 5.32626C26.1292 5.35371 26.3323 5.24115 26.5437 4.9968L27.0956 5.47726C26.7551 5.92478 26.3021 6.11422 25.7475 6.06481C24.8415 5.98793 24.2128 5.3345 24.3089 4.19785C24.405 3.06944 25.1325 2.52308 26.0495 2.6027C26.7057 2.66036 27.0928 3.00355 27.285 3.45107L26.6645 3.83544H26.6618Z" fill="white"/>
<path d="M30.9228 5.43067C30.6098 6.52339 29.8246 6.91874 28.9488 6.6689C28.0785 6.4218 27.6227 5.67227 27.9357 4.57681C28.2487 3.4786 29.0339 3.07775 29.9042 3.32485C30.7801 3.57469 31.2386 4.32971 30.9256 5.42792L30.9228 5.43067ZM28.7072 4.79645C28.526 5.43341 28.7072 5.82877 29.152 5.95506C29.5968 6.08136 29.9674 5.84524 30.1513 5.20828C30.3326 4.57132 30.1404 4.16773 29.6983 4.04143C29.2563 3.91514 28.8884 4.15949 28.7072 4.79645Z" fill="white"/>
<path d="M33.2812 4.67008L32.3258 6.53704C32.1693 6.84179 32.2818 7.12458 32.5536 7.26186C32.8199 7.39914 33.1302 7.33599 33.2867 7.02849L34.2421 5.16153L34.9615 5.52943L34.006 7.39639C33.6161 8.15965 32.8749 8.25848 32.2187 7.92078C31.568 7.58858 31.2166 6.9269 31.6064 6.16639L32.5619 4.29944L33.2812 4.66734V4.67008Z" fill="white"/>
<path d="M36.7379 6.75402L36.4991 8.91749L37.6384 7.45413L38.2727 7.94832L36.2135 10.5895L35.637 10.1393L35.8154 7.93459L34.6788 9.39247L34.0446 8.89827L36.1037 6.25708L36.7379 6.75127V6.75402Z" fill="white"/>
<path d="M40.815 10.6416L40.2604 11.1413L39.6344 10.4467L37.7016 12.1928L37.1635 11.5971L39.0963 9.85092L38.4648 9.15081L39.0194 8.65112L40.815 10.6416Z" fill="white"/>
<path d="M41.7951 12.0309L40.9742 13.3652L42.5337 13.2087L43.0086 13.9637L40.502 14.123L39.5355 14.7325L39.11 14.0571L40.0819 13.4476L41.3037 11.2539L41.7951 12.0364V12.0309Z" fill="white"/>
<path d="M19.636 29.1383C19.1473 28.6084 18.6695 28.0922 18.1781 27.5624C19.8611 25.4565 21.6622 23.4715 23.6417 21.6293C24.0316 21.9505 24.383 22.3157 24.7646 22.689C22.84 24.6576 21.1323 26.7963 19.6387 29.141L19.636 29.1383Z" fill="#662D91"/>
<path d="M6.19119 27.9302L5.45265 28.0345L5.32086 27.1093L2.74282 27.4772L2.63025 26.681L5.2083 26.3131L5.07377 25.3796L5.81231 25.2753L6.19119 27.9302Z" fill="white"/>
<path d="M5.54319 31.5187C4.4587 31.8646 3.69545 31.4281 3.41815 30.5605C3.1436 29.6984 3.51424 28.9022 4.59873 28.559C5.6887 28.213 6.4547 28.6441 6.72925 29.5062C7.00655 30.3738 6.63041 31.1727 5.54319 31.5214V31.5187ZM4.84308 29.325C4.21161 29.5254 3.98373 29.8988 4.12375 30.3381C4.26377 30.7774 4.66736 30.9586 5.29883 30.7554C5.9303 30.555 6.15818 30.1706 6.02091 29.7341C5.88089 29.2948 5.47729 29.1246 4.84308 29.3277V29.325Z" fill="white"/>
<path d="M7.7973 32.2626L5.4938 33.4761L6.21313 34.8434L5.5542 35.1921L4.45874 33.1137L7.42116 31.5515L7.79455 32.2626H7.7973Z" fill="white"/>
<path d="M9.24963 34.6348L7.15754 36.186L8.07729 37.427L7.47877 37.8718L6.0813 35.9856L8.77191 33.9896L9.24963 34.6348Z" fill="white"/>
<path d="M12.5224 38.1051C13.0934 38.5773 13.2472 39.1731 12.7942 39.7195C12.4812 40.0956 12.0996 40.1945 11.7042 40.0627L11.4681 41.5837L10.768 41.0016L11.0151 39.6261L10.6884 39.3543L9.91413 40.2906L9.29639 39.7771L11.4352 37.1991L12.5279 38.1051H12.5224ZM11.1194 38.8272L11.6081 39.2308C11.8168 39.4038 12.0337 39.4394 12.1957 39.2418C12.3576 39.0468 12.278 38.8464 12.0694 38.6734L11.5807 38.2698L11.1167 38.8299L11.1194 38.8272Z" fill="white"/>
<path d="M15.7237 42.13C15.1718 43.1239 14.3152 43.3298 13.519 42.8878C12.7283 42.4485 12.4538 41.6139 13.0056 40.62C13.5602 39.6206 14.4141 39.4092 15.2075 39.8485C16.0037 40.2905 16.2783 41.1307 15.7237 42.13ZM13.7085 41.0099C13.3872 41.5892 13.4751 42.0147 13.8787 42.2399C14.2795 42.4623 14.6996 42.3195 15.0208 41.7402C15.342 41.1609 15.246 40.7243 14.8451 40.5019C14.4443 40.2796 14.0324 40.4306 13.7085 41.0126V41.0099Z" fill="white"/>
<path d="M18.5378 41.3558L18.612 44.9195L17.8048 44.6449V44.0217L16.6791 43.6373L16.3057 44.1343L15.4985 43.8597L17.7252 41.0785L18.5351 41.3558H18.5378ZM17.1349 43.0443L17.8075 43.2749V42.1547L17.1349 43.0443Z" fill="white"/>
<path d="M21.0746 41.9517C22.1014 42.0972 22.8125 42.8385 22.667 43.8598C22.5215 44.8866 21.621 45.4138 20.6051 45.2683L19.5701 45.1227L20.0396 41.8062L21.0746 41.9517ZM20.4761 44.505L20.7122 44.5379C21.2723 44.6176 21.7747 44.3567 21.8598 43.7582C21.9449 43.1597 21.5359 42.7726 20.973 42.693L20.7369 42.66L20.4761 44.505Z" fill="white"/>
<path d="M26.5987 42.0038L28.2075 45.1858L27.3619 45.2874L27.0956 44.7246L25.9123 44.8646L25.7887 45.4741L24.9431 45.5757L25.7476 42.1054L26.5987 42.0038ZM26.0633 44.1343L26.7689 44.0492L26.2884 43.0388L26.0633 44.1343Z" fill="white"/>
<path d="M28.7017 41.5782L29.3029 43.5879C29.4018 43.9173 29.6763 44.0409 29.9674 43.9558C30.2556 43.8707 30.4341 43.6099 30.3353 43.2804L29.734 41.2707L30.5082 41.04L31.1095 43.0498C31.3538 43.8707 30.8871 44.4555 30.1843 44.6669C29.4841 44.8755 28.7731 44.6449 28.526 43.824L27.9247 41.8143L28.6989 41.5837L28.7017 41.5782Z" fill="white"/>
<path d="M33.2621 39.7085L33.5943 40.3757L32.7569 40.7902L33.9128 43.1239L33.1934 43.4808L32.0376 41.1471L31.1919 41.5672L30.8597 40.9001L33.2621 39.7085Z" fill="white"/>
<path d="M34.2696 39.0167L35.0164 40.0407L35.8813 39.4093L35.1345 38.3852L35.7879 37.9075L37.762 40.6146L37.1085 41.0923L36.3206 40.0133L35.4557 40.6448L36.2437 41.7237L35.5957 42.1987L33.6217 39.4916L34.2696 39.0167Z" fill="white"/>
<path d="M39.5933 36.403C40.4251 37.1799 40.4197 38.0585 39.7992 38.7257C39.1814 39.3873 38.3083 39.4532 37.4737 38.6762C36.6391 37.8965 36.6391 37.018 37.2541 36.3535C37.8746 35.6891 38.7559 35.6232 39.5905 36.403H39.5933ZM38.0201 38.0887C38.506 38.5417 38.9398 38.5554 39.2555 38.2205C39.5713 37.8855 39.5301 37.4435 39.0441 36.9905C38.5582 36.5375 38.1134 36.5265 37.8004 36.8642C37.4874 37.2019 37.5369 37.6384 38.0228 38.0887H38.0201Z" fill="white"/>
<path d="M39.4641 33.5723C39.8595 32.9463 40.4305 32.7157 41.0318 33.0973C41.4464 33.3582 41.5919 33.7261 41.5095 34.1324L43.0498 34.1708L42.5638 34.9396L41.1691 34.8709L40.9412 35.2306L41.968 35.8813L41.5397 36.5594L38.7091 34.7694L39.4669 33.5696L39.4641 33.5723ZM40.3592 34.8709L40.6969 34.3356C40.8424 34.1077 40.8479 33.888 40.631 33.7508C40.4196 33.6162 40.2274 33.7178 40.0819 33.9484L39.7442 34.4838L40.3592 34.8709Z" fill="white"/>
<path d="M40.7024 31.2111L43.7472 32.6085L43.4095 33.3443L40.3647 31.9469L40.7024 31.2111Z" fill="white"/>
<path d="M41.7402 28.2295L42.4513 28.4546L42.1685 29.3442L44.6504 30.1321L44.4061 30.8981L41.9241 30.1102L41.6386 31.0107L40.9275 30.7856L41.7402 28.2295Z" fill="white"/>
<path d="M41.9159 27.1944L43.4012 26.7002L42.1053 25.8161L42.2289 24.9348L44.2496 26.4284L45.3808 26.5849L45.2709 27.3756L44.1343 27.2191L41.7869 28.1114L41.9132 27.1944H41.9159Z" fill="white"/>
<path d="M44.2935 17.2556L43.5083 18.0271L43.7718 19.0979L42.7944 18.5872L41.8555 19.1665L42.0367 18.082L41.1965 17.3682L42.2865 17.2062L42.7038 16.1876L43.1953 17.1733L44.2935 17.2556Z" fill="#FFE512"/>
<path d="M45.3067 22.1674L44.365 22.7357L44.3677 23.8366L43.5358 23.1146L42.4898 23.4605L42.9208 22.4447L42.2701 21.5579L43.3656 21.6512L44.0108 20.7589L44.2579 21.8297L45.3067 22.1674Z" fill="#FFE512"/>
<path d="M2.69067 22.1893L3.7175 21.7885L3.8987 20.704L4.59607 21.5551L5.68604 21.3931L5.09026 22.3211L5.58171 23.3067L4.51645 23.0267L3.73123 23.7982L3.66808 22.6972L2.69067 22.1893Z" fill="#FFE512"/>
<path d="M3.69824 17.2748L4.79096 17.1266L5.21926 16.1107L5.69973 17.1046L6.79794 17.2007L6.00174 17.9612L6.24883 19.0347L5.27966 18.5158L4.3352 19.0814L4.53014 17.9969L3.69824 17.2748Z" fill="#FFE512"/>
</g>
<defs>
<clipPath id="clip0_3002_3005">
<rect width="48" height="48" fill="white"/>
</clipPath>
</defs>
</svg>
