<svg width="363" height="211" viewBox="0 0 363 211" fill="none" xmlns="http://www.w3.org/2000/svg">
<g clip-path="url(#clip0_3005_1263)">
<path d="M222.921 22.8418H6.07288V172.86H222.921V22.8418Z" fill="#FAFAFA"/>
<path d="M222.921 172.867C222.921 171.821 222.86 113.252 222.774 22.8486L222.921 22.9751C160.824 22.9817 86.2346 22.9884 6.0929 23.0017H6.07288L6.25307 22.8552C6.24639 77.1627 6.23972 128.414 6.23305 172.873L6.07288 172.74C135.158 172.82 221.532 172.873 222.921 172.873C221.532 172.873 135.158 172.927 6.07288 173.007H5.91272V172.873C5.91272 128.414 5.89937 77.1627 5.8927 22.8552V22.7087H6.0929C86.2346 22.7154 160.824 22.7287 222.921 22.7354H223.067V22.8619C222.981 113.272 222.921 171.841 222.921 172.88V172.867Z" fill="#263238"/>
<path d="M85.8675 50.5083H30.9782C28.9032 50.5083 27.2211 52.1867 27.2211 54.2571V55.2226C27.2211 57.293 28.9032 58.9714 30.9782 58.9714H85.8675C87.9425 58.9714 89.6247 57.293 89.6247 55.2226V54.2571C89.6247 52.1867 87.9425 50.5083 85.8675 50.5083Z" fill="#662D91"/>
<path d="M66.1474 72.3552H28.6692C27.6335 72.3552 26.7939 73.1929 26.7939 74.2263V74.7124C26.7939 75.7457 27.6335 76.5834 28.6692 76.5834H66.1474C67.183 76.5834 68.0226 75.7457 68.0226 74.7124V74.2263C68.0226 73.1929 67.183 72.3552 66.1474 72.3552Z" fill="#E0E0E0"/>
<path d="M115.044 72.3552H77.5657C76.53 72.3552 75.6904 73.1929 75.6904 74.2263V74.7124C75.6904 75.7457 76.53 76.5834 77.5657 76.5834H115.044C116.08 76.5834 116.919 75.7457 116.919 74.7124V74.2263C116.919 73.1929 116.08 72.3552 115.044 72.3552Z" fill="#E0E0E0"/>
<path d="M42.7636 133.474H29.37C28.3343 133.474 27.4948 134.312 27.4948 135.345V135.832C27.4948 136.865 28.3343 137.703 29.37 137.703H42.7636C43.7993 137.703 44.6389 136.865 44.6389 135.832V135.345C44.6389 134.312 43.7993 133.474 42.7636 133.474Z" fill="#E0E0E0"/>
<path d="M79.1874 132.602H65.7937C64.758 132.602 63.9185 133.44 63.9185 134.473V134.959C63.9185 135.993 64.758 136.831 65.7937 136.831H79.1874C80.223 136.831 81.0626 135.993 81.0626 134.959V134.473C81.0626 133.44 80.223 132.602 79.1874 132.602Z" fill="#E0E0E0"/>
<path d="M112.688 132.908H99.2944C98.2588 132.908 97.4192 133.746 97.4192 134.78V135.266C97.4192 136.299 98.2588 137.137 99.2944 137.137H112.688C113.724 137.137 114.563 136.299 114.563 135.266V134.78C114.563 133.746 113.724 132.908 112.688 132.908Z" fill="#E0E0E0"/>
<path d="M66.8482 91.0459H29.37C28.3343 91.0459 27.4948 91.8836 27.4948 92.917V93.403C27.4948 94.4364 28.3343 95.2741 29.37 95.2741H66.8482C67.8839 95.2741 68.7234 94.4364 68.7234 93.403V92.917C68.7234 91.8836 67.8839 91.0459 66.8482 91.0459Z" fill="#E0E0E0"/>
<path d="M114.236 81.6106H29.0963C28.0606 81.6106 27.2211 82.4483 27.2211 83.4817V83.9677C27.2211 85.0011 28.0606 85.8388 29.0963 85.8388H114.236C115.272 85.8388 116.112 85.0011 116.112 83.9677V83.4817C116.112 82.4483 115.272 81.6106 114.236 81.6106Z" fill="#E0E0E0"/>
<path d="M41.4317 123.325C44.8253 120.365 45.1714 115.22 42.2047 111.834C39.238 108.448 34.0819 108.103 30.6883 111.063C27.2947 114.023 26.9486 119.167 29.9153 122.553C32.882 125.939 38.0381 126.285 41.4317 123.325Z" fill="#E0E0E0"/>
<path d="M77.1411 122.084C80.3284 118.904 80.3284 113.748 77.1411 110.567C73.9538 107.387 68.7861 107.387 65.5988 110.567C62.4115 113.748 62.4115 118.904 65.5988 122.084C68.7861 125.264 73.9538 125.264 77.1411 122.084Z" fill="#E0E0E0"/>
<path d="M114.338 118.504C115.379 114.128 112.667 109.738 108.281 108.7C103.896 107.662 99.4966 110.367 98.4558 114.743C97.415 119.119 100.127 123.508 104.512 124.547C108.898 125.585 113.297 122.88 114.338 118.504Z" fill="#E0E0E0"/>
<path d="M225.296 26.3844H3.70377C1.66169 26.3844 0 24.7331 0 22.6889C0 20.6513 1.65502 19 3.70377 19H225.296C227.338 19 229 20.6513 229 22.6955C229 24.7331 227.345 26.391 225.296 26.391V26.3844Z" fill="#ADB0B1"/>
</g>
<g clip-path="url(#clip1_3005_1263)">
<path d="M358.366 96.1252C356.335 98.1684 353.783 99.6908 351.485 102.242C349.188 104.792 340.531 107.583 339.769 107.837C339.008 108.091 340.277 103.51 339.769 98.6759C339.261 93.8416 336.202 94.6028 335.187 96.8997C334.171 99.1967 334.171 102.495 333.41 105.046C332.648 107.597 325.768 114.461 326.022 118.28C326.276 122.1 326.784 130.246 326.784 130.246L300.292 162.831C300.292 162.831 292.65 138.392 289.083 126.426C285.516 114.461 279.918 107.076 269.217 104.018C258.516 100.959 248.336 100.452 248.336 100.452L208.351 99.9445C207.082 100.452 179.828 102.495 174.738 108.852C169.648 115.222 165.32 140.929 165.32 142.705C165.32 144.482 157.424 168.413 157.424 168.413C157.424 168.413 145.708 165.355 133.484 154.417C121.26 143.467 111.334 136.349 111.067 135.574C110.813 134.813 106.484 130.994 98.5887 123.355C90.6932 115.716 85.3494 112.912 81.0208 111.136C76.6923 109.359 72.11 111.136 72.3638 113.433C72.6177 115.729 73.633 115.462 78.2153 116.237C82.7977 117.012 86.6185 122.086 86.6185 122.086C86.6185 122.086 82.29 126.921 81.5285 129.979C80.767 133.037 79.2307 137.871 82.0362 139.394C84.8417 140.916 90.6932 141.17 90.6932 141.17C90.6932 141.17 92.47 144.228 94.514 144.228C96.558 144.228 104.186 143.467 104.186 143.467C104.186 143.467 128.381 177.066 134.232 182.675C140.084 188.271 157.411 196.417 160.203 197.445C163.009 198.46 167.083 199.742 170.396 197.445C173.71 195.148 185.934 162.563 185.934 162.563C185.934 162.563 193.562 181.513 195.085 189.406C196.608 197.298 194.898 201.144 194.898 202.159C194.898 201.852 196.421 199.929 196.22 198.393C209.393 201.211 239.826 207.287 269.591 199.555C269.591 199.689 269.618 199.796 269.631 199.929C268.883 192.05 272.784 170.202 272.784 170.202C272.784 170.202 281.441 186.495 285.516 193.626C289.591 200.757 296.471 205.111 301.574 204.096C306.664 203.081 321.947 172.78 323.991 164.38C326.035 155.98 335.187 134.306 336.469 132.022C337.752 129.738 345.634 123.622 347.424 122.353C349.201 121.085 356.843 115.729 358.633 113.192C360.423 110.655 361.438 104.792 361.692 100.212C361.946 95.6311 360.423 94.0953 358.379 96.1385L358.366 96.1252Z" fill="white" stroke="black" stroke-linecap="round" stroke-linejoin="round"/>
<path d="M332.127 125.906C332.127 125.906 335.948 117.252 342.575 114.955C349.201 112.658 354.799 111.389 354.799 111.389C354.799 111.389 359.635 96.6194 361.679 100.185C363.723 103.751 359.902 114.18 358.112 115.716C356.335 117.239 336.469 132.009 336.469 132.009" fill="white"/>
<path d="M332.127 125.906C332.127 125.906 335.948 117.252 342.575 114.955C349.201 112.658 354.799 111.389 354.799 111.389C354.799 111.389 359.635 96.6194 361.679 100.185C363.723 103.751 359.902 114.18 358.112 115.716C356.335 117.239 336.469 132.009 336.469 132.009" stroke="black" stroke-linecap="round" stroke-linejoin="round"/>
<path d="M106.738 132.022C106.738 132.022 104.694 125.652 103.933 124.129C103.171 122.607 98.5888 120.817 97.0524 117.252C95.5161 113.686 95.0084 111.403 93.2316 113.686C91.4547 115.97 90.9337 118.521 92.2162 121.579C93.4854 124.637 96.5447 125.652 96.5447 125.652C96.5447 125.652 92.9777 134.305 100.619 137.871" fill="white"/>
<path d="M106.738 132.022C106.738 132.022 104.694 125.652 103.933 124.129C103.171 122.607 98.5888 120.817 97.0524 117.252C95.5161 113.686 95.0084 111.403 93.2316 113.686C91.4547 115.97 90.9337 118.521 92.2162 121.579C93.4854 124.637 96.5447 125.652 96.5447 125.652C96.5447 125.652 92.9777 134.305 100.619 137.871" stroke="black" stroke-linecap="round" stroke-linejoin="round"/>
<path d="M87.901 123.876C87.901 123.876 95.2888 127.695 95.035 131.007C94.7811 134.319 91.468 141.958 90.9603 142.719C90.4526 143.48 82.3033 141.704 81.0341 140.943C79.765 140.181 79.3642 134.893 81.5418 129.992C82.5037 127.842 84.6011 124.904 84.6011 124.904" fill="white"/>
<path d="M87.901 123.876C87.901 123.876 95.2888 127.695 95.035 131.007C94.7811 134.319 91.468 141.958 90.9603 142.719C90.4526 143.48 82.3033 141.704 81.0341 140.943C79.765 140.181 79.3642 134.893 81.5418 129.992C82.5037 127.842 84.6011 124.904 84.6011 124.904" stroke="black" stroke-linecap="round" stroke-linejoin="round"/>
<path d="M82.5972 127.682C82.5972 127.682 86.5516 131.768 94.1799 133.611" stroke="black" stroke-linecap="round" stroke-linejoin="round"/>
<path d="M80.3394 134.319C80.3394 134.319 84.7213 138.699 92.6168 138.699" stroke="black" stroke-linecap="round" stroke-linejoin="round"/>
<path d="M323.123 167.157C308.2 165.208 307.265 159.719 306.584 155.085L300.292 162.831C300.292 162.831 292.65 138.392 289.083 126.426C285.516 114.461 279.918 107.076 269.217 104.018C258.516 100.96 248.336 100.452 248.336 100.452L208.351 99.9446C207.082 100.452 179.828 102.495 174.738 108.852C169.648 115.222 165.32 140.929 165.32 142.705C165.32 144.482 157.424 168.413 157.424 168.413C157.424 168.413 150.05 166.476 140.912 160.226L132.535 180.846C133.203 181.607 133.791 182.235 134.245 182.675C140.097 188.271 157.424 196.417 160.216 197.445C163.022 198.46 167.097 199.742 170.41 197.445C173.723 195.148 185.947 162.564 185.947 162.564C185.947 162.564 193.575 181.513 195.098 189.406C196.621 197.298 194.911 201.144 194.911 202.159C194.911 202.306 194.644 203.228 194.19 204.71C200.442 207.528 213.441 212.189 229.953 211.481C247.628 210.72 264.141 206.807 271.221 204.937C270.7 203.562 270.286 202.52 270.045 201.906C268.028 196.871 272.798 170.202 272.798 170.202C272.798 170.202 281.455 186.495 285.529 193.626C289.604 200.757 296.484 205.111 301.587 204.096C306.223 203.174 319.289 178.015 323.136 167.157H323.123Z" fill="#FFBC58" stroke="black" stroke-linecap="round" stroke-linejoin="round"/>
<path d="M293.131 171.084L289.337 175.451" stroke="black" stroke-linecap="round" stroke-linejoin="round"/>
<path d="M300.292 162.817L295.349 168.519" stroke="black" stroke-linecap="round" stroke-linejoin="round"/>
<path d="M167.163 172.74L169.528 173.781" stroke="black" stroke-linecap="round" stroke-linejoin="round"/>
<path d="M157.424 168.426L163.904 170.723" stroke="black" stroke-linecap="round" stroke-linejoin="round"/>
<path d="M201.952 12.9672C201.952 12.9672 197.957 19.4174 196.728 23.7175C195.499 28.0176 196.421 53.4979 187.51 60.2419C178.599 66.9992 181.672 77.1219 192.734 83.572C203.782 90.0222 222.526 98.6091 243.407 94.6161C264.288 90.6232 275.349 80.8077 276.565 72.5146C277.794 64.2215 272.571 62.6857 270.112 54.7131C267.654 46.7272 270.42 38.4474 265.503 24.3184C260.614 10.2162 244.328 0.0801527 230.515 0.694456C216.701 1.30876 204.717 6.83749 201.952 12.9672Z" fill="black" stroke="black" stroke-linecap="round" stroke-linejoin="round"/>
<path d="M218.504 92.7999C218.504 92.7999 210.181 95.8848 208.752 97.7944C207.322 99.6908 204.704 106.114 204.704 106.114C204.704 106.114 203.755 137.724 208.511 135.587C213.267 133.451 227.054 121.806 228.484 122.046C229.913 122.286 247.508 134.399 249.405 134.88C251.302 135.36 251.783 136.309 252.972 132.503C254.161 128.697 255.11 112.538 254.161 105.647C253.212 98.756 245.838 94.4825 241.803 93.521C237.769 92.5595 218.504 92.8132 218.504 92.8132V92.7999Z" fill="white" stroke="black" stroke-linecap="round" stroke-linejoin="round"/>
<path d="M217.075 84.7206C217.075 84.7206 216.126 94.9367 214.456 100.172C212.787 105.393 228.003 134.159 231.102 131.06C234.189 127.976 245.371 104.926 245.371 101.36C245.371 97.7946 243.941 84.2532 243.941 84.2532L217.075 84.7339V84.7206Z" fill="white" stroke="black" stroke-linecap="round" stroke-linejoin="round"/>
<path d="M238.691 89.7149C238.691 89.7149 235.484 96.1384 226.346 99.0897C217.208 102.054 214.456 100.158 214.456 100.158L217.075 84.707L238.704 89.7016L238.691 89.7149Z" fill="black" stroke="black" stroke-linecap="round" stroke-linejoin="round"/>
<path d="M218.01 27.8574C218.01 27.8574 204.797 46.153 204.797 47.0744C204.797 47.9959 204.717 53.1908 204.717 53.1908C204.717 53.1908 196.728 51.3479 199.801 62.0982C202.874 72.8485 209.326 71.3127 209.326 71.3127C209.326 71.3127 213.935 84.5069 220.067 89.4213C226.213 94.3358 235.137 96.1787 243.113 87.8856C251.088 79.5925 252.304 71.0056 252.304 71.0056C252.304 71.0056 260.52 68.8288 260.934 60.9898C261.108 57.5977 260.814 55.3141 256.298 53.5113L256.913 43.9896C256.913 43.9896 220.147 40.7578 217.997 27.8708L218.01 27.8574Z" fill="white" stroke="black" stroke-linecap="round" stroke-linejoin="round"/>
<path d="M223.554 58.2923C223.554 59.9616 222.659 61.3104 221.55 61.3104C220.441 61.3104 219.546 59.9616 219.546 58.2923C219.546 56.623 220.441 55.2742 221.55 55.2742C222.659 55.2742 223.554 56.623 223.554 58.2923Z" fill="black"/>
<path d="M244.809 58.2923C244.809 59.9616 243.914 61.3104 242.805 61.3104C241.696 61.3104 240.801 59.9616 240.801 58.2923C240.801 56.623 241.696 55.2742 242.805 55.2742C243.914 55.2742 244.809 56.623 244.809 58.2923Z" fill="black"/>
<path d="M225.879 69.9507C225.879 69.9507 227.843 72.448 231.222 72.0874C234.616 71.7268 236.219 68.8823 236.219 68.8823" stroke="black" stroke-linecap="round" stroke-linejoin="round"/>
<path d="M212.466 52.0555C212.466 52.0555 215.672 47.9557 222.806 50.2794" stroke="black" stroke-linecap="round" stroke-linejoin="round"/>
<path d="M237.715 48.0493C237.715 48.0493 245.157 46.4868 247.615 53.8985" stroke="black" stroke-linecap="round" stroke-linejoin="round"/>
<path d="M224.797 75.5996C224.797 75.5996 226.547 77.576 230.047 78.0034C233.547 78.4441 237.715 75.3726 237.715 75.3726C237.715 75.3726 236.406 80.8479 232.465 82.811C228.524 84.7874 224.797 79.7528 224.797 75.5862V75.5996Z" fill="black"/>
<path d="M272.784 170.202L275.336 139.914" stroke="black" stroke-linecap="round" stroke-linejoin="round"/>
<path d="M185.947 162.563L181.619 138.632" stroke="black" stroke-linecap="round" stroke-linejoin="round"/>
</g>
<defs>
<clipPath id="clip0_3005_1263">
<rect width="229" height="154" fill="white" transform="translate(0 19)"/>
</clipPath>
<clipPath id="clip1_3005_1263">
<rect width="291.239" height="211" fill="white" transform="translate(71.6826)"/>
</clipPath>
</defs>
</svg>
