<?xml version="1.0" encoding="UTF-8"?>
<svg version="1.1" xmlns="http://www.w3.org/2000/svg" width="582" height="524">
<path d="M0 0 C192.06 0 384.12 0 582 0 C582 172.92 582 345.84 582 524 C389.94 524 197.88 524 0 524 C0 351.08 0 178.16 0 0 Z " fill="#FEFEFE" transform="translate(0,0)"/>
<path d="M0 0 C18.39641802 16.1551624 32.94995252 40.34386155 34.67578125 65.1796875 C35.72167267 87.97975604 33.7991379 106.71526761 23.67578125 127.1796875 C23.20269531 128.16453125 22.72960937 129.149375 22.2421875 130.1640625 C18.31207049 137.86842785 13.09709903 144.48680866 7.67578125 151.1796875 C6.88171875 152.18644531 6.08765625 153.19320312 5.26953125 154.23046875 C2.47534002 157.40759884 -0.4291847 159.97091603 -3.76171875 162.5546875 C-4.3664502 163.02656494 -4.97118164 163.49844238 -5.59423828 163.98461914 C-11.81803398 168.73004229 -18.40680239 172.53075037 -25.32421875 176.1796875 C-26.10796875 176.59992188 -26.89171875 177.02015625 -27.69921875 177.453125 C-50.8473845 189.47932049 -78.5517091 190.34687961 -103.32421875 183.1796875 C-129.3151866 174.83524961 -152.13020283 157.23437247 -165.32421875 133.1796875 C-165.32421875 132.5196875 -165.32421875 131.8596875 -165.32421875 131.1796875 C-165.98421875 131.1796875 -166.64421875 131.1796875 -167.32421875 131.1796875 C-167.98421875 128.5396875 -168.64421875 125.8996875 -169.32421875 123.1796875 C-169.98421875 123.1796875 -170.64421875 123.1796875 -171.32421875 123.1796875 C-173.06972252 117.44068269 -174.77384624 111.68954482 -176.44921875 105.9296875 C-176.94808594 104.22039062 -176.94808594 104.22039062 -177.45703125 102.4765625 C-182.06173505 84.9703913 -180.65961443 65.17945603 -174.94628906 48.14404297 C-174.31056076 46.13655869 -173.82028694 44.12961616 -173.34765625 42.078125 C-167.96190727 19.9949336 -148.825104 -0.04619086 -130.0390625 -11.640625 C-87.36718717 -36.99267382 -37.57979232 -32.18008341 0 0 Z " fill="#0F0F0F" transform="translate(385.32421875,140.8203125)"/>
<path d="M0 0 C1.27371234 -0.00445784 2.54742468 -0.00891569 3.85973436 -0.01350862 C5.28131506 -0.01341932 6.70289576 -0.01322946 8.12447643 -0.01294994 C9.62834254 -0.01624847 11.13220777 -0.01997402 12.63607186 -0.02409142 C16.77928591 -0.03412056 20.92248548 -0.03782967 25.06570995 -0.04048073 C29.53003264 -0.044381 33.99434382 -0.05395944 38.45865917 -0.0626936 C49.24432779 -0.08246444 60.02999737 -0.09252438 70.81567958 -0.10142139 C75.89202341 -0.10580272 80.9683662 -0.11116988 86.04470921 -0.11641026 C102.91416012 -0.13342212 119.78361037 -0.14791748 136.65306854 -0.155159 C141.03165532 -0.15706896 145.41024209 -0.15898928 149.78882885 -0.16094494 C151.42128489 -0.16167055 151.42128489 -0.16167055 153.08671983 -0.16241082 C170.72642558 -0.17071559 188.36606362 -0.19606024 206.00573979 -0.22852562 C224.10640374 -0.26156853 242.20703324 -0.27960519 260.30772752 -0.28280324 C270.47455429 -0.28497076 280.64128229 -0.29375484 290.80807972 -0.31926441 C299.46434647 -0.34093351 308.12049044 -0.34904051 316.77678124 -0.33929763 C321.19474772 -0.33474208 325.61246067 -0.33671176 330.03039265 -0.35605907 C334.0739062 -0.37361413 338.11697984 -0.37275582 342.16049757 -0.35716178 C343.62417111 -0.35477402 345.08787451 -0.35916953 346.55150227 -0.37099043 C348.53995696 -0.38605682 350.52856161 -0.37407791 352.51702881 -0.36076355 C354.17434705 -0.36222876 354.17434705 -0.36222876 355.86514646 -0.36372358 C361.82645934 0.59937798 366.05946698 4.72103233 369.94727612 9.13422108 C373.28923715 14.40547845 373.43446391 18.89836119 373.38477612 24.94672108 C373.40475658 25.79814686 373.42473705 26.64957264 373.44532299 27.5267992 C373.44023712 34.2045415 372.11403887 40.5518874 367.57056713 45.69159412 C361.32737279 51.18198354 355.84193402 52.57808729 347.83008862 52.42718983 C346.97293255 52.42294498 346.11577648 52.41870014 345.23264599 52.41432667 C342.51219447 52.39761994 339.7925013 52.35998327 337.07227612 52.32172108 C335.22072436 52.30666386 333.36916092 52.29297727 331.51758862 52.28070545 C326.99362847 52.25030249 322.47129468 52.19156779 317.94727612 52.13422108 C317.94727612 62.03422108 317.94727612 71.93422108 317.94727612 82.13422108 C319.59727612 82.46422108 321.24727612 82.79422108 322.94727612 83.13422108 C332.32133024 86.69727917 339.22451217 92.29358344 343.94727612 101.19672108 C347.58124208 110.12095042 347.28550001 119.62363693 343.88477612 128.57172108 C338.64015465 139.3796979 331.15058358 145.17090048 319.94727612 149.13422108 C315.80789507 149.77448505 312.09029989 149.67640911 307.94727612 149.13422108 C307.13387768 149.03625233 306.32047924 148.93828358 305.48243237 148.83734608 C296.68530289 147.33356326 289.41345596 142.0730853 283.94727612 135.13422108 C277.98671604 126.41915976 277.42324591 116.33675663 278.94727612 106.13422108 C281.53657535 96.75845208 287.58670563 89.98376381 295.94727612 85.13422108 C299.24727612 84.14422108 302.54727612 83.15422108 305.94727612 82.13422108 C305.94727612 72.23422108 305.94727612 62.33422108 305.94727612 52.13422108 C300.12957592 52.14754475 300.12957592 52.14754475 294.19434643 52.16113758 C258.62862132 52.24073253 223.06290733 52.30044857 187.49711269 52.33848239 C182.83580632 52.34348523 178.17450015 52.34866251 173.51319408 52.35394764 C172.12122002 52.3555215 172.12122002 52.3555215 170.70112526 52.35712716 C155.67505653 52.37453272 140.64904901 52.40607125 125.6230166 52.44283226 C110.20509259 52.48023746 94.78720065 52.50245604 79.36923313 52.51057506 C69.85538858 52.5160637 60.34171704 52.53339955 50.82792574 52.56588694 C44.30409196 52.58702962 37.78034762 52.59342168 31.25648206 52.58822659 C27.49242703 52.58566441 23.72867433 52.58959393 19.96467304 52.61104298 C15.88160945 52.63414 11.79918905 52.62616853 7.71607494 52.61523914 C5.93590166 52.63271619 5.93590166 52.63271619 4.11976528 52.65054631 C-4.22325249 52.59010097 -9.71222876 51.40048298 -15.86522388 45.38422108 C-20.33545957 38.74272807 -21.63897857 32.61489633 -21.61522388 24.75922108 C-21.61280689 23.9257616 -21.6103899 23.09230213 -21.60789967 22.23358631 C-21.40189267 15.3350447 -19.89969912 10.25596815 -15.05272388 5.13422108 C-10.43111139 1.03350975 -6.07005821 0.0098305 0 0 Z " fill="#101010" transform="translate(137.05272388458252,347.86577892303467)"/>
<path d="M0 0 C0.8971875 0.433125 0.8971875 0.433125 1.8125 0.875 C2.1425 1.865 2.4725 2.855 2.8125 3.875 C14.15618476 12.8486326 27.41162321 16.25748417 41.8125 14.875 C51.67927479 13.32929116 61.80258335 9.7115203 69.3125 2.9375 C71.8125 0.875 71.8125 0.875 73.640625 0.98046875 C85.16070452 5.7252497 92.57582617 19.30192772 97.1875 30.0625 C102.44988251 45.6472482 100.8125 57.1141235 100.8125 74.875 C57.9125 74.875 15.0125 74.875 -29.1875 74.875 C-29.1875 43.91084462 -28.93646538 26.66140773 -8.703125 5.30078125 C-3.02666084 -0.17295205 -3.02666084 -0.17295205 0 0 Z " fill="#FDFDFD" transform="translate(277.1875,215.125)"/>
<path d="M0 0 C0.93005859 0.59554687 0.93005859 0.59554687 1.87890625 1.203125 C2.57113281 1.60015625 3.26335937 1.9971875 3.9765625 2.40625 C12.3793222 7.36937535 18.39408273 12.82090782 21.87890625 22.203125 C22.20890625 22.533125 22.53890625 22.863125 22.87890625 23.203125 C24.38389222 32.23304081 24.24288693 41.16675298 22.87890625 50.203125 C22.21890625 50.203125 21.55890625 50.203125 20.87890625 50.203125 C20.76804687 50.77289063 20.6571875 51.34265625 20.54296875 51.9296875 C18.23619248 59.82700392 11.81065671 66.30153201 4.8671875 70.38671875 C-6.02156016 76.04886753 -17.82432814 77.13763058 -29.62109375 73.640625 C-39.45828024 69.84171152 -45.75163187 62.09968328 -50.87109375 53.140625 C-54.98926291 43.46292747 -55.02218623 33.4690244 -53.12109375 23.203125 C-52.46109375 22.543125 -51.80109375 21.883125 -51.12109375 21.203125 C-50.53328125 19.65625 -50.53328125 19.65625 -49.93359375 18.078125 C-46.08972877 8.90613035 -37.3625086 1.85528428 -28.36328125 -1.96875 C-19.58699089 -4.21040489 -8.04796486 -4.47284153 0 0 Z " fill="#FCFCFC" transform="translate(328.12109375,143.796875)"/>
<path d="M0 0 C0.99 0 1.98 0 3 0 C4.17134222 3.62350621 5.33627802 7.24903999 6.5 10.875 C6.83386719 11.90753906 7.16773438 12.94007812 7.51171875 14.00390625 C7.82753906 14.99003906 8.14335937 15.97617187 8.46875 16.9921875 C8.76201172 17.90339355 9.05527344 18.81459961 9.35742188 19.75341797 C10 22 10 22 10 24 C18.58 24 27.16 24 36 24 C36 25.32 36 26.64 36 28 C34.25585938 29.73925781 34.25585938 29.73925781 31.84375 31.453125 C30.55791016 32.38125 30.55791016 32.38125 29.24609375 33.328125 C28.33988281 33.96234375 27.43367188 34.5965625 26.5 35.25 C25.14068359 36.22453125 25.14068359 36.22453125 23.75390625 37.21875 C21.51069648 38.82441594 19.25948009 40.41735185 17 42 C18.36422333 46.11854022 19.73125059 50.23419901 21.16796875 54.328125 C21.50441406 55.29234375 21.84085937 56.2565625 22.1875 57.25 C22.53167969 58.22453125 22.87585938 59.1990625 23.23046875 60.203125 C23.98609557 62.9494641 24.14979729 65.16934783 24 68 C20.89943547 67.38906188 18.8197618 66.39052565 16.25 64.56640625 C15.5590625 64.08236328 14.868125 63.59832031 14.15625 63.09960938 C13.4446875 62.59236328 12.733125 62.08511719 12 61.5625 C10.58497739 60.56147404 9.16835977 59.56269814 7.75 58.56640625 C7.12609375 58.12240479 6.5021875 57.67840332 5.859375 57.22094727 C3.96690257 55.97826678 2.04299723 54.97149716 0 54 C-0.52956299 54.39380859 -1.05912598 54.78761719 -1.60473633 55.19335938 C-4.00193723 56.96964767 -6.40704934 58.73490196 -8.8125 60.5 C-9.64587891 61.12003906 -10.47925781 61.74007812 -11.33789062 62.37890625 C-12.54155273 63.25869141 -12.54155273 63.25869141 -13.76953125 64.15625 C-14.87711792 64.97319336 -14.87711792 64.97319336 -16.00708008 65.80664062 C-18 67 -18 67 -21 67 C-20.36772932 60.17147669 -19.26544522 52.99694711 -15.83984375 46.953125 C-14.7587888 44.43904371 -15.01658631 43.53133548 -16 41 C-17.77485966 39.33168357 -17.77485966 39.33168357 -20.03515625 37.90625 C-21.24848633 37.07287109 -21.24848633 37.07287109 -22.48632812 36.22265625 C-24.20647627 35.07241314 -25.92783611 33.92398004 -27.65039062 32.77734375 C-28.45798828 32.22175781 -29.26558594 31.66617188 -30.09765625 31.09375 C-30.84539307 30.59552734 -31.59312988 30.09730469 -32.36352539 29.58398438 C-32.90356201 29.06126953 -33.44359863 28.53855469 -34 28 C-34 26.68 -34 25.36 -34 24 C-25.42 24 -16.84 24 -8 24 C-7.01 20.37 -6.02 16.74 -5 13 C-4.31498267 10.78432325 -3.611861 8.57397888 -2.875 6.375 C-2.54242188 5.37210938 -2.20984375 4.36921875 -1.8671875 3.3359375 C-1 1 -1 1 0 0 Z " fill="#161616" transform="translate(312,20)"/>
<path d="M0 0 C4.84258937 0.43779867 7.6205726 2.82196791 11.125 5.9375 C16.21826869 11.00731677 16.21826869 11.00731677 22.67578125 12.97265625 C27.1965035 11.64990673 30.42778314 9.21310664 34.1875 6.4375 C35.59309878 5.40910633 37.00308204 4.38667095 38.41796875 3.37109375 C39.03438232 2.91661865 39.6507959 2.46214355 40.28588867 1.99389648 C42 1 42 1 45 1 C43.74273032 7.74353736 41.62952731 13.67817291 38.92578125 19.984375 C37.8912663 23.35418742 37.65547425 24.7511654 39 28 C40.88771829 29.87903247 42.65880402 31.45178119 44.75 33.0625 C45.2759375 33.48337891 45.801875 33.90425781 46.34375 34.33789062 C48.82400958 36.31780081 51.33188934 38.24353502 53.890625 40.12109375 C54.58671875 40.74113281 55.2828125 41.36117187 56 42 C56 42.99 56 43.98 56 45 C46.94706663 45.13534286 38.02140429 44.75741925 29 44 C29.02707031 44.92039063 29.05414063 45.84078125 29.08203125 46.7890625 C28.97957647 50.79943548 27.68848263 53.37288916 26 57 C24.57197736 60.63374774 23.23471775 64.29584675 22 68 C21.01 68 20.02 68 19 68 C16.69 60.08 14.38 52.16 12 44 C3.09 43.34 -5.82 42.68 -15 42 C-15 41.01 -15 40.02 -15 39 C-13.39526367 37.57373047 -13.39526367 37.57373047 -11.16796875 36.1171875 C-10.36939453 35.58996094 -9.57082031 35.06273437 -8.74804688 34.51953125 C-7.90306641 33.97683594 -7.05808594 33.43414062 -6.1875 32.875 C-5.35412109 32.32457031 -4.52074219 31.77414063 -3.66210938 31.20703125 C2.53583177 27.15472274 2.53583177 27.15472274 6 26 C4.43465907 18.91710982 2.78714698 11.9274999 0.55078125 5.0234375 C0 3 0 3 0 0 Z " fill="#131313" transform="translate(380,58)"/>
<path d="M0 0 C-1.0645749 7.11584278 -2.75421945 13.69783497 -5.1953125 20.46875 C-6.15148042 23.03382189 -6.15148042 23.03382189 -6 26 C-3.03 27.65 -0.06 29.3 3 31 C3 31.66 3 32.32 3 33 C3.70125 33.2475 4.4025 33.495 5.125 33.75 C8.41286474 35.17950641 11.15545943 36.81698049 14 39 C14 39.99 14 40.98 14 42 C1.13 42.99 1.13 42.99 -12 44 C-14.38727826 52.52597304 -14.38727826 52.52597304 -16.125 61.0625 C-16.89978678 65.79957356 -16.89978678 65.79957356 -18 68 C-19.32 68 -20.64 68 -22 68 C-22.24234375 67.16597656 -22.4846875 66.33195312 -22.734375 65.47265625 C-24.55955842 59.34425191 -26.48515046 53.47116886 -29.265625 47.70703125 C-30 46 -30 46 -30 44 C-31.18142578 44.10828125 -31.18142578 44.10828125 -32.38671875 44.21875 C-40.27957154 44.8912771 -48.08058786 45.11665255 -56 45 C-56 43.68 -56 42.36 -56 41 C-53.78916816 38.96355196 -51.65786642 37.20756847 -49.25 35.4375 C-48.61578125 34.95603516 -47.9815625 34.47457031 -47.328125 33.97851562 C-45.56081054 32.64014311 -43.78261617 31.31788538 -42 30 C-41.19046875 29.39285156 -40.3809375 28.78570312 -39.546875 28.16015625 C-38.78117187 27.58587891 -38.78117187 27.58587891 -38 27 C-38.84132387 22.01898026 -40.51668527 17.36354224 -42.18359375 12.61523438 C-43.50705583 8.75839961 -44.45043977 5.04051668 -45 1 C-41.40975181 1.62726175 -39.11997863 3.12568477 -36.1875 5.25 C-35.31222656 5.87390625 -34.43695313 6.4978125 -33.53515625 7.140625 C-31.98625792 8.27664288 -30.44904072 9.42910251 -28.93359375 10.609375 C-25.88723121 13.18660742 -25.88723121 13.18660742 -22.14453125 13.89453125 C-19.15117686 12.64593716 -17.03288798 10.78099106 -14.5625 8.6875 C-13.17224609 7.51767578 -13.17224609 7.51767578 -11.75390625 6.32421875 C-9.95341387 4.80465426 -8.16866964 3.26617907 -6.40234375 1.70703125 C-4 0 -4 0 0 0 Z " fill="#121212" transform="translate(246,58)"/>
<path d="M0 0 C5.49013336 3.15342371 10.80185684 8.53057052 12.8125 14.5625 C13.34282052 21.53825457 13.42182483 27.46398564 9.8125 33.5625 C5.07197374 39.05153041 0.29172676 42.23398125 -6.95703125 42.765625 C-19.48426026 42.958599 -19.48426026 42.958599 -24.8359375 38.05078125 C-30.19863315 32.2302945 -32.89306646 26.15228646 -32.58984375 18.18359375 C-31.69724124 12.36867839 -29.44086277 7.50804789 -24.95703125 3.63671875 C-17.43168286 -1.50703488 -8.76254411 -3.82492005 0 0 Z " fill="#F9F9F9" transform="translate(459.1875,442.4375)"/>
<path d="M0 0 C6.01520019 -0.11498896 12.02656727 -0.21446543 18.04199219 -0.2746582 C20.08672019 -0.29975583 22.13135889 -0.33384164 24.17578125 -0.37719727 C27.12001611 -0.43805815 30.06306196 -0.4662573 33.0078125 -0.48828125 C33.9174173 -0.51408768 34.82702209 -0.5398941 35.76419067 -0.56648254 C40.14734524 -0.56840635 43.07774283 -0.41189352 46.56201172 2.40551758 C50.25872642 6.3395239 50.21045265 9.12685368 50.25 14.3125 C50.27578125 15.62863281 50.3015625 16.94476563 50.328125 18.30078125 C49.98400138 22.18036538 49.42868615 23.9969624 47 27 C44.10778278 28.76665297 41.96597509 29.24685868 38.59863281 29.22705078 C37.3077475 29.22682419 37.3077475 29.22682419 35.99078369 29.22659302 C35.07085632 29.21627045 34.15092896 29.20594788 33.203125 29.1953125 C32.25435486 29.1924826 31.30558472 29.18965271 30.32806396 29.18673706 C27.30191361 29.17555448 24.2760607 29.1504533 21.25 29.125 C19.19661886 29.11496772 17.14323308 29.1058423 15.08984375 29.09765625 C10.05968942 29.07732418 5.03017714 29.03817166 0 29 C0 19.43 0 9.86 0 0 Z " fill="#F7F7F7" transform="translate(449,359)"/>
<path d="M0 0 C-0.99 0.33 -1.98 0.66 -3 1 C-4.02212951 3.04425902 -4.59167268 4.75419972 -5 7 C-4.67 7.99 -4.34 8.98 -4 10 C-2.68 10 -1.36 10 0 10 C-1.62339805 11.70884005 -3.29319053 13.37446717 -5 15 C-5.66 15 -6.32 15 -7 15 C-7.28875 15.721875 -7.5775 16.44375 -7.875 17.1875 C-9 20 -9 20 -10.125 22.1875 C-12.09500405 28.51965586 -11.70001083 34.22518197 -8.9375 40.25 C-6.35438859 44.95601332 -3.28078011 47.81039913 1 51 C0.01 51.495 0.01 51.495 -1 52 C-0.2236068 55.0745356 -0.2236068 55.0745356 2 57 C1.01 57.495 1.01 57.495 0 58 C0.66 58.66 1.32 59.32 2 60 C2 60.99 2 61.98 2 63 C-7.08147828 60.79269625 -13.79182914 55.8122563 -19 48 C-19.556875 47.17048828 -19.556875 47.17048828 -20.125 46.32421875 C-24.84786952 37.87880972 -24.53997881 26.61125881 -22.03515625 17.484375 C-18.66791987 9.87149274 -9.34514629 -2.80354389 0 0 Z " fill="#161616" transform="translate(439,433)"/>
<path d="M0 0 C-0.99 0.33 -1.98 0.66 -3 1 C-4.02212951 3.04425902 -4.59167268 4.75419972 -5 7 C-4.67 7.99 -4.34 8.98 -4 10 C-2.68 10 -1.36 10 0 10 C-1.65 11.65 -3.3 13.3 -5 15 C-5.99 14.34 -6.98 13.68 -8 13 C-7.34 12.67 -6.68 12.34 -6 12 C-6.66 11.34 -7.32 10.68 -8 10 C-7.67 9.67 -7.34 9.34 -7 9 C-7.66 8.34 -8.32 7.68 -9 7 C-10.34262065 7.29369827 -11.67696283 7.6278958 -13 8 C-13.66 7.67 -14.32 7.34 -15 7 C-13.5433323 5.85204994 -12.08461063 4.70670581 -10.625 3.5625 C-9.40683594 2.60537109 -9.40683594 2.60537109 -8.1640625 1.62890625 C-4.91493732 -0.81673491 -3.84911174 -1.15473352 0 0 Z " fill="#1F1F1F" transform="translate(439,433)"/>
<path d="M0 0 C0.99 0 1.98 0 3 0 C4.75747614 4.50353262 5.19294408 8.17639811 5 13 C4.67 12.34 4.34 11.68 4 11 C2.35 11.33 0.7 11.66 -1 12 C-1 10.68 -1 9.36 -1 8 C-1.99 8.495 -1.99 8.495 -3 9 C-2.01 6.03 -1.02 3.06 0 0 Z " fill="#1F1F1F" transform="translate(312,20)"/>
<path d="M0 0 C0.72703125 0.144375 1.4540625 0.28875 2.203125 0.4375 C13.90674979 2.59816919 24.34076429 2.31530922 36 0 C35.67 0.66 35.34 1.32 35 2 C29.06761188 3.87232611 23.43966077 4.3633037 17.25 4.5625 C15.58840601 4.62266558 13.92693456 4.68634103 12.265625 4.75390625 C11.54149414 4.77783447 10.81736328 4.8017627 10.07128906 4.82641602 C7.95607709 5.00368095 6.04121939 5.42932106 4 6 C4 5.01 4 4.02 4 3 C2.68 2.34 1.36 1.68 0 1 C0 0.67 0 0.34 0 0 Z " fill="#BCBCBC" transform="translate(295,228)"/>
<path d="M0 0 C0 0.66 0 1.32 0 2 C-0.680625 2.391875 -1.36125 2.78375 -2.0625 3.1875 C-5.41789725 5.25785149 -7.7725202 7.70759924 -10.44921875 10.57421875 C-12 12 -12 12 -14 12 C-14 12.66 -14 13.32 -14 14 C-14.66 13.67 -15.32 13.34 -16 13 C-5.38709677 0 -5.38709677 0 0 0 Z " fill="#C2C2C2" transform="translate(296,145)"/>
<path d="M0 0 C0.66 0 1.32 0 2 0 C0.52278578 3.45201639 -1.43794001 5.64961936 -4.125 8.25 C-4.84945313 8.95640625 -5.57390625 9.6628125 -6.3203125 10.390625 C-6.87460937 10.92171875 -7.42890625 11.4528125 -8 12 C-8.66 11.67 -9.32 11.34 -10 11 C-8.52116808 9.35386588 -7.04192523 7.70810092 -5.5625 6.0625 C-4.73878906 5.14597656 -3.91507812 4.22945312 -3.06640625 3.28515625 C-1 1 -1 1 0 0 Z " fill="#D2D2D2" transform="translate(271,218)"/>
<path d="M0 0 C0 0.99 0 1.98 0 3 C-1.96094234 4.85297379 -3.89063861 6.52233971 -6 8.1875 C-6.57234375 8.65091797 -7.1446875 9.11433594 -7.734375 9.59179688 C-9.14977971 10.73591568 -10.57407451 11.86902041 -12 13 C-12.66 12.67 -13.32 12.34 -14 12 C-9.64157559 7.40312076 -5.25723759 3.54058858 0 0 Z " fill="#353535" transform="translate(251,132)"/>
<path d="M0 0 C1.2065625 0.0309375 1.2065625 0.0309375 2.4375 0.0625 C1.7775 0.7225 1.1175 1.3825 0.4375 2.0625 C1.0975 2.7225 1.7575 3.3825 2.4375 4.0625 C2.4375 5.0525 2.4375 6.0425 2.4375 7.0625 C0.1275 6.4025 -2.1825 5.7425 -4.5625 5.0625 C-3.43829114 0.08386076 -3.43829114 0.08386076 0 0 Z " fill="#1C1C1C" transform="translate(438.5625,488.9375)"/>
<path d="M0 0 C3.625 0.375 3.625 0.375 7 1 C6.67 1.66 6.34 2.32 6 3 C7.32 3.66 8.64 4.32 10 5 C7.375 5.75 7.375 5.75 4 6 C0.625 4.0625 0.625 4.0625 -2 2 C-1.34 1.34 -0.68 0.68 0 0 Z " fill="#1D1D1D" transform="translate(255,308)"/>
<path d="M0 0 C0.598125 0.20625 1.19625 0.4125 1.8125 0.625 C1.8125 1.945 1.8125 3.265 1.8125 4.625 C-0.4975 4.625 -2.8075 4.625 -5.1875 4.625 C-5.1875 3.635 -5.1875 2.645 -5.1875 1.625 C-2.1875 -0.375 -2.1875 -0.375 0 0 Z " fill="#232323" transform="translate(370.1875,95.375)"/>
<path d="M0 0 C-0.3125 1.9375 -0.3125 1.9375 -1 4 C-1.99 4.33 -2.98 4.66 -4 5 C-4.99 4.34 -5.98 3.68 -7 3 C-4.49955934 -0.00052879 -4.2621484 0 0 0 Z M-9 4 C-8.34 4.33 -7.68 4.66 -7 5 C-7.99 5 -8.98 5 -10 5 C-9.67 4.67 -9.34 4.34 -9 4 Z " fill="#232323" transform="translate(246,58)"/>
<path d="M0 0 C0.66 1.32 1.32 2.64 2 4 C2.99 4 3.98 4 5 4 C4.67 5.65 4.34 7.3 4 9 C-0.8 5.55384615 -0.8 5.55384615 -1.8125 2.75 C-1.874375 2.1725 -1.93625 1.595 -2 1 C-1.34 0.67 -0.68 0.34 0 0 Z " fill="#E7E7E7" transform="translate(432,472)"/>
<path d="M0 0 C0.66 0.99 1.32 1.98 2 3 C1.01 4.485 1.01 4.485 0 6 C-0.24219315 8.97449608 -0.24219315 8.97449608 -0.125 12.1875 C-0.10695313 13.27417969 -0.08890625 14.36085938 -0.0703125 15.48046875 C-0.04710937 16.31191406 -0.02390625 17.14335937 0 18 C-2.83360193 13.74959711 -2.41305774 9.98846654 -2 5 C-1 1.875 -1 1.875 0 0 Z " fill="#CCCCCC" transform="translate(429,453)"/>
<path d="M0 0 C0.33 0.99 0.66 1.98 1 3 C-1.31 4.98 -3.62 6.96 -6 9 C-6 6 -6 6 -4.6875 4.39453125 C-4.130625 3.87246094 -3.57375 3.35039062 -3 2.8125 C-2.443125 2.28269531 -1.88625 1.75289062 -1.3125 1.20703125 C-0.6628125 0.60955078 -0.6628125 0.60955078 0 0 Z " fill="#3D3D3D" transform="translate(236,145)"/>
<path d="M0 0 C0.66 0.66 1.32 1.32 2 2 C0.68 4.64 -0.64 7.28 -2 10 C-2.33 10 -2.66 10 -3 10 C-3.36923077 3.47692308 -3.36923077 3.47692308 -1.5 1.0625 C-1.005 0.711875 -0.51 0.36125 0 0 Z " fill="#1E1E1E" transform="translate(430,448)"/>
<path d="M0 0 C2.64 0.66 5.28 1.32 8 2 C8 2.99 8 3.98 8 5 C6.68 5.33 5.36 5.66 4 6 C4 5.01 4 4.02 4 3 C2.68 2.34 1.36 1.68 0 1 C0 0.67 0 0.34 0 0 Z " fill="#D8D8D8" transform="translate(295,228)"/>
<path d="M0 0 C0.66 0.33 1.32 0.66 2 1 C-1.96 4.465 -1.96 4.465 -6 8 C-6.66 7.67 -7.32 7.34 -8 7 C-5.36 4.69 -2.72 2.38 0 0 Z " fill="#3C3C3C" transform="translate(200,91)"/>
<path d="M0 0 C0.33 1.65 0.66 3.3 1 5 C-1.4375 4.625 -1.4375 4.625 -4 4 C-4.33 3.34 -4.66 2.68 -5 2 C-2 0 -2 0 0 0 Z " fill="#202020" transform="translate(334,82)"/>
<path d="M0 0 C-0.25 1.875 -0.25 1.875 -1 4 C-3.0625 5.25 -3.0625 5.25 -5 6 C-5 4.35 -5 2.7 -5 1 C-2 0 -2 0 0 0 Z " fill="#171717" transform="translate(382,300)"/>
<path d="M0 0 C-0.99 0.33 -1.98 0.66 -3 1 C-3.33 1.66 -3.66 2.32 -4 3 C-5.65 3 -7.3 3 -9 3 C-5.83583464 -0.30799106 -4.50236011 -1.35070803 0 0 Z " fill="#373737" transform="translate(439,433)"/>
<path d="M0 0 C0.66 0.99 1.32 1.98 2 3 C0.625 5.5 0.625 5.5 -1 8 C-1.66 8 -2.32 8 -3 8 C-1.125 2.25 -1.125 2.25 0 0 Z " fill="#D7D7D7" transform="translate(255,238)"/>
</svg>
