<svg width="272" height="206" viewBox="0 0 272 206" fill="none" xmlns="http://www.w3.org/2000/svg">
<path d="M71.0626 78.02C92.7121 78.02 110.263 60.5546 110.263 39.01C110.263 17.4654 92.7121 0 71.0626 0C49.413 0 31.8625 17.4654 31.8625 39.01C31.8625 60.5546 49.413 78.02 71.0626 78.02Z" fill="black"/>
<path d="M91.9723 88.87C104.725 88.87 115.062 79.1053 115.062 67.06C115.062 55.0147 104.725 45.25 91.9723 45.25C79.2201 45.25 68.8823 55.0147 68.8823 67.06C68.8823 79.1053 79.2201 88.87 91.9723 88.87Z" fill="black"/>
<path d="M109.692 105.61C118.562 105.61 125.752 98.8137 125.752 90.43C125.752 82.0463 118.562 75.25 109.692 75.25C100.823 75.25 93.6323 82.0463 93.6323 90.43C93.6323 98.8137 100.823 105.61 109.692 105.61Z" fill="black"/>
<path d="M62.4324 56.39C62.2124 58.88 61.0024 72.73 59.3424 83.95C55.4624 90.29 32.5524 82.04 28.0224 88.96C25.0124 93.56 14.2724 130.82 20.5624 131.32C27.1924 131.84 99.5424 96.13 99.1424 88.96C99.1224 88.39 81.3124 84.48 80.0324 83.46C79.1624 76.95 77.9024 63.63 76.7424 57.35C78.2424 54.61 62.6524 53.9 62.4324 56.38V56.39Z" fill="white"/>
<path d="M62.4324 56.39C62.2124 58.88 61.0024 72.73 59.3424 83.95C55.4624 90.29 32.5524 82.04 28.0224 88.96C25.0124 93.56 14.2724 130.82 20.5624 131.32C27.1924 131.84 99.5424 96.13 99.1424 88.96C99.1224 88.39 81.3124 84.48 80.0324 83.46C79.1624 76.95 77.9024 63.63 76.7424 57.35C78.2424 54.61 62.6524 53.9 62.4324 56.38V56.39Z" stroke="#010062" stroke-miterlimit="10"/>
<path d="M140.552 174.55C136.732 157.63 113.792 93.02 109.192 91.17C98.3924 86.82 95.7024 87.04 94.8824 87.63C94.9524 94.4 57.3224 102.02 21.8924 102.28C14.7724 123.96 3.72244 162.49 1.75244 174.55H140.552Z" fill="#FEC84B"/>
<path fill-rule="evenodd" clip-rule="evenodd" d="M97.3625 41.41C96.1625 14.52 57.6025 16.6 58.0025 48.53C57.9825 49.15 56.3925 50.44 55.0225 49.06C53.5825 47.61 52.2925 43.48 49.8425 43.62C46.9025 43.62 45.3325 54.91 51.6425 56.52C52.3425 56.52 53.0125 56.38 53.6225 56.13C54.0525 59.52 54.7925 63.05 56.0525 66.26C56.6925 67.9 66.3825 77.27 81.1225 77.15C89.2025 76.56 94.6425 68.04 95.5025 65.39C98.7125 55.48 97.1825 46.53 97.3625 41.41Z" fill="white"/>
<path fill-rule="evenodd" clip-rule="evenodd" d="M97.3625 41.41C96.1625 14.52 57.6025 16.6 58.0025 48.53C57.9825 49.15 56.3925 50.44 55.0225 49.06C53.5825 47.61 52.2925 43.48 49.8425 43.62C46.9025 43.62 45.3325 54.91 51.6425 56.52C52.3425 56.52 53.0125 56.38 53.6225 56.13C54.0525 59.52 54.7925 63.05 56.0525 66.26C56.6925 67.9 66.3825 77.27 81.1225 77.15C89.2025 76.56 94.6425 68.04 95.5025 65.39C98.7125 55.48 97.1825 46.53 97.3625 41.41Z" stroke="#010062" stroke-miterlimit="10"/>
<path d="M116.412 176.88C112.502 162.15 101.282 124.01 101.282 124.01" stroke="white" stroke-linecap="round" stroke-linejoin="round"/>
<path d="M94.3724 49.89C94.3124 51.67 93.3024 53.07 92.1124 53.03C90.9224 52.99 90.0124 51.52 90.0724 49.74C90.1324 47.96 91.1424 46.56 92.3324 46.6C93.5224 46.64 94.4324 48.11 94.3724 49.89Z" fill="#010062"/>
<path d="M72.4424 49.89C72.3824 51.67 71.2224 53.07 69.8524 53.02C68.4824 52.97 67.4224 51.5 67.4824 49.72C67.5424 47.94 68.7024 46.54 70.0724 46.59C71.4424 46.64 72.5024 48.11 72.4424 49.89Z" fill="#010062"/>
<path d="M95.1824 41.17C95.1824 41.17 92.8924 40.11 88.1624 41.15" stroke="#010062" stroke-linecap="round" stroke-linejoin="round"/>
<path d="M74.3523 41.28C74.3523 41.28 70.3923 39.73 65.6423 41.15" stroke="#010062" stroke-linecap="round" stroke-linejoin="round"/>
<path d="M82.9523 43.84C82.9523 43.84 81.9923 49.36 83.2123 55.7C87.0323 55.5 88.2123 59.72 84.7523 60.26C83.7123 60.71 80.1323 59.72 79.3823 59.13" stroke="#010062" stroke-linecap="round" stroke-linejoin="round"/>
<path d="M75.9524 64.48C78.3024 66.88 84.8524 67.19 86.4924 64.48" stroke="black" stroke-linecap="round" stroke-linejoin="round"/>
<path d="M21.7024 102.8C21.7024 102.8 -7.53757 177.32 1.86243 184.36C10.6824 190.97 35.3424 191.33 42.5324 191.33C45.8424 188.3 48.8924 177.81 46.5024 176.37C43.7424 174.72 26.6624 170.86 26.6624 170.86L43.1524 119.49" fill="#FEC84B"/>
<path d="M17.3525 172.97C17.9225 172.97 26.6625 170.87 26.6625 170.87L17.3525 172.97Z" fill="#FF5876"/>
<path d="M17.3525 172.97C17.9225 172.97 26.6625 170.87 26.6625 170.87" stroke="white" stroke-linecap="round" stroke-linejoin="round"/>
<path d="M89.9825 205.25C100.018 205.25 108.152 201.077 108.152 195.93C108.152 190.783 100.018 186.61 89.9825 186.61C79.9475 186.61 71.8125 190.783 71.8125 195.93C71.8125 201.077 79.9475 205.25 89.9825 205.25Z" fill="#7C7C7C"/>
<path d="M42.5723 178.02L68.2923 183.57C68.2923 183.57 89.2723 180.14 93.0923 182.81C96.9123 185.48 109.232 192.46 108.082 194.37C107.702 195.01 105.682 198.76 98.3123 198.58C95.5423 198.51 83.8623 193.94 82.3023 194.37C77.6323 195.67 74.9323 197.28 66.5623 192.47C63.8923 192.47 39.1023 189.46 38.1723 188.11C37.2523 186.76 38.7323 176.87 42.5623 178.02H42.5723Z" fill="white" stroke="#010062" stroke-miterlimit="10"/>
<path fill-rule="evenodd" clip-rule="evenodd" d="M181.552 187.07L125.662 190.87L146.952 198.09L181.552 187.07Z" fill="white" stroke="#00CCBD" stroke-width="1.43" stroke-linecap="round" stroke-linejoin="round"/>
<path fill-rule="evenodd" clip-rule="evenodd" d="M270.402 68C270.402 61.4 259.092 56.91 252.812 56.91H134.072C127.792 56.91 123.842 62.56 122.652 68.91L103.082 151.51C103.012 156.53 112.882 164.18 116.802 164.18L233.242 159.7C239.522 159.7 243.472 154.05 244.662 147.71L261.022 78.21L270.402 68.01V68Z" fill="white" stroke="black" stroke-width="1.43" stroke-miterlimit="10"/>
<path fill-rule="evenodd" clip-rule="evenodd" d="M270.792 69.93C270.792 63.33 265.652 61.73 259.372 61.73H140.632C134.352 61.73 130.402 67.38 129.212 73.72L109.642 156.32C109.642 162.92 114.782 164.52 121.062 164.52H239.802C246.082 164.52 250.032 158.87 251.222 152.53L267.582 83.03L270.802 69.93H270.792Z" fill="white" stroke="black" stroke-width="1.43" stroke-miterlimit="10"/>
<path fill-rule="evenodd" clip-rule="evenodd" d="M210.942 132.73C209.862 137.02 198.972 195.85 193.992 198.84C191.202 200.51 168.442 200.68 148.662 200.48C134.972 198.09 120.632 195.03 120.002 194.95C119.862 194.93 116.772 190.64 123.422 190.39C131.532 190.08 149.182 194.1 150.552 191.56C163.042 185.74 178.932 142.8 181.432 135.1C185.792 121.68 213.162 123.91 210.942 132.74V132.73Z" fill="white" stroke="black" stroke-width="1.43" stroke-linecap="round" stroke-linejoin="round"/>
<path d="M148.012 85.6H254.382" stroke="black" stroke-width="1.43" stroke-linecap="round" stroke-linejoin="round"/>
<path d="M146.282 92.53H252.652" stroke="black" stroke-width="1.43" stroke-linecap="round" stroke-linejoin="round"/>
</svg>
